<mxfile host="app.diagrams.net" modified="2023-09-18T21:09:54.826Z" agent="Mozilla/5.0 (Windows NT 10.0; Win64; x64) AppleWebKit/537.36 (KHTML, like Gecko) Chrome/116.0.0.0 Safari/537.36" etag="7UqXx9LqgNFu6apMzz2O" version="21.7.5" type="github">
  <diagram name="P치gina-1" id="JOzfCKYc2YDYA0-O9KQo">
    <mxGraphModel dx="1434" dy="758" grid="1" gridSize="10" guides="1" tooltips="1" connect="1" arrows="1" fold="1" page="1" pageScale="1" pageWidth="1800" pageHeight="1100" math="0" shadow="0">
      <root>
        <mxCell id="0" />
        <mxCell id="1" parent="0" />
        <mxCell id="5NYgrTEiffQtnbERS2pI-1" value="&lt;font style=&quot;vertical-align: inherit;&quot;&gt;&lt;font style=&quot;vertical-align: inherit;&quot;&gt;&lt;font style=&quot;vertical-align: inherit;&quot;&gt;&lt;font style=&quot;vertical-align: inherit;&quot;&gt;&lt;font style=&quot;vertical-align: inherit;&quot;&gt;&lt;font style=&quot;vertical-align: inherit;&quot;&gt;&lt;font style=&quot;vertical-align: inherit;&quot;&gt;&lt;font style=&quot;vertical-align: inherit;&quot;&gt;&lt;font style=&quot;vertical-align: inherit;&quot;&gt;&lt;font style=&quot;vertical-align: inherit;&quot;&gt;&lt;font style=&quot;vertical-align: inherit;&quot;&gt;&lt;font style=&quot;vertical-align: inherit;&quot;&gt;Validar registro de notificaci칩n de urgencias al cargar RIPS de urgencias&lt;/font&gt;&lt;/font&gt;&lt;/font&gt;&lt;/font&gt;&lt;/font&gt;&lt;/font&gt;&lt;/font&gt;&lt;/font&gt;&lt;/font&gt;&lt;/font&gt;&lt;/font&gt;&lt;/font&gt;" style="swimlane;childLayout=stackLayout;resizeParent=1;resizeParentMax=0;horizontal=1;startSize=20;horizontalStack=0;html=1;" parent="1" vertex="1">
          <mxGeometry x="25" y="10" width="1745" height="1060" as="geometry" />
        </mxCell>
        <mxCell id="4U9Br_nLbGtTlrGPJi6w-41" value="Si" style="edgeStyle=orthogonalEdgeStyle;rounded=0;orthogonalLoop=1;jettySize=auto;html=1;" edge="1" parent="5NYgrTEiffQtnbERS2pI-1" source="4U9Br_nLbGtTlrGPJi6w-15" target="4U9Br_nLbGtTlrGPJi6w-34">
          <mxGeometry relative="1" as="geometry" />
        </mxCell>
        <mxCell id="5NYgrTEiffQtnbERS2pI-2" value="&lt;font style=&quot;vertical-align: inherit;&quot;&gt;&lt;font style=&quot;vertical-align: inherit;&quot;&gt;&lt;font style=&quot;vertical-align: inherit;&quot;&gt;&lt;font style=&quot;vertical-align: inherit;&quot;&gt;&lt;font style=&quot;vertical-align: inherit;&quot;&gt;&lt;font style=&quot;vertical-align: inherit;&quot;&gt;ZonaSer Prestador&lt;/font&gt;&lt;/font&gt;&lt;/font&gt;&lt;/font&gt;&lt;/font&gt;&lt;/font&gt;" style="swimlane;startSize=20;horizontal=0;html=1;" parent="5NYgrTEiffQtnbERS2pI-1" vertex="1">
          <mxGeometry y="20" width="1745" height="200" as="geometry" />
        </mxCell>
        <mxCell id="5NYgrTEiffQtnbERS2pI-3" value="" style="points=[[0.145,0.145,0],[0.5,0,0],[0.855,0.145,0],[1,0.5,0],[0.855,0.855,0],[0.5,1,0],[0.145,0.855,0],[0,0.5,0]];shape=mxgraph.bpmn.event;html=1;verticalLabelPosition=bottom;labelBackgroundColor=#ffffff;verticalAlign=top;align=center;perimeter=ellipsePerimeter;outlineConnect=0;aspect=fixed;outline=standard;symbol=general;fillColor=#d1f58f;strokeColor=#74c059;strokeWidth=2;" parent="5NYgrTEiffQtnbERS2pI-2" vertex="1">
          <mxGeometry x="30" y="80" width="50" height="50" as="geometry" />
        </mxCell>
        <UserObject label="Notificaci칩n de urgencias" link="https://app.diagrams.net/#Hkevinjporto%2FDiagramas-de-procesos%2Fmain%2FNotificacion_urgencias.drawio" id="4U9Br_nLbGtTlrGPJi6w-1">
          <mxCell style="points=[[0.25,0,0],[0.5,0,0],[0.75,0,0],[1,0.25,0],[1,0.5,0],[1,0.75,0],[0.75,1,0],[0.5,1,0],[0.25,1,0],[0,0.75,0],[0,0.5,0],[0,0.25,0]];shape=mxgraph.bpmn.task;whiteSpace=wrap;rectStyle=rounded;size=10;html=1;container=1;expand=0;collapsible=0;taskMarker=abstract;isLoopSub=1;strokeWidth=2;fillColor=#dae8fc;strokeColor=#6c8ebf;labelBackgroundColor=none;" vertex="1" parent="5NYgrTEiffQtnbERS2pI-2">
            <mxGeometry x="125" y="65" width="120" height="80" as="geometry" />
          </mxCell>
        </UserObject>
        <mxCell id="5NYgrTEiffQtnbERS2pI-4" style="edgeStyle=orthogonalEdgeStyle;rounded=0;orthogonalLoop=1;jettySize=auto;html=1;entryX=0;entryY=0.5;entryDx=0;entryDy=0;entryPerimeter=0;" parent="5NYgrTEiffQtnbERS2pI-2" source="5NYgrTEiffQtnbERS2pI-3" target="4U9Br_nLbGtTlrGPJi6w-1" edge="1">
          <mxGeometry relative="1" as="geometry">
            <mxPoint x="115" y="105" as="targetPoint" />
          </mxGeometry>
        </mxCell>
        <mxCell id="5NYgrTEiffQtnbERS2pI-8" value="OASIS (erip)" style="swimlane;startSize=20;horizontal=0;html=1;" parent="5NYgrTEiffQtnbERS2pI-1" vertex="1">
          <mxGeometry y="220" width="1745" height="280" as="geometry" />
        </mxCell>
        <mxCell id="5NYgrTEiffQtnbERS2pI-9" style="edgeStyle=orthogonalEdgeStyle;rounded=0;orthogonalLoop=1;jettySize=auto;html=1;fontFamily=Helvetica;fontSize=12;fontColor=default;entryX=0;entryY=0.5;entryDx=0;entryDy=0;entryPerimeter=0;" parent="5NYgrTEiffQtnbERS2pI-8" source="5NYgrTEiffQtnbERS2pI-10" target="5NYgrTEiffQtnbERS2pI-12" edge="1">
          <mxGeometry relative="1" as="geometry">
            <mxPoint x="545" y="80" as="targetPoint" />
          </mxGeometry>
        </mxCell>
        <mxCell id="5NYgrTEiffQtnbERS2pI-10" value="Cargar archivos RIPS" style="points=[[0.25,0,0],[0.5,0,0],[0.75,0,0],[1,0.25,0],[1,0.5,0],[1,0.75,0],[0.75,1,0],[0.5,1,0],[0.25,1,0],[0,0.75,0],[0,0.5,0],[0,0.25,0]];shape=mxgraph.bpmn.task;whiteSpace=wrap;rectStyle=rounded;size=10;html=1;container=1;expand=0;collapsible=0;taskMarker=abstract;labelBackgroundColor=none;strokeColor=#6c8ebf;fontFamily=Helvetica;fontSize=12;fontColor=default;fillColor=#dae8fc;strokeWidth=2;" parent="5NYgrTEiffQtnbERS2pI-8" vertex="1">
          <mxGeometry x="455" y="90" width="120" height="80" as="geometry" />
        </mxCell>
        <mxCell id="4U9Br_nLbGtTlrGPJi6w-38" style="edgeStyle=orthogonalEdgeStyle;rounded=0;orthogonalLoop=1;jettySize=auto;html=1;entryX=0;entryY=0.5;entryDx=0;entryDy=0;entryPerimeter=0;" edge="1" parent="5NYgrTEiffQtnbERS2pI-8" source="5NYgrTEiffQtnbERS2pI-12" target="4U9Br_nLbGtTlrGPJi6w-15">
          <mxGeometry relative="1" as="geometry" />
        </mxCell>
        <mxCell id="5NYgrTEiffQtnbERS2pI-12" value="Validar archivo RIPS y verificar que el ID de notificaci칩n de urgencias no se ha facturado" style="points=[[0.25,0,0],[0.5,0,0],[0.75,0,0],[1,0.25,0],[1,0.5,0],[1,0.75,0],[0.75,1,0],[0.5,1,0],[0.25,1,0],[0,0.75,0],[0,0.5,0],[0,0.25,0]];shape=mxgraph.bpmn.task;whiteSpace=wrap;rectStyle=rounded;size=10;html=1;container=1;expand=0;collapsible=0;taskMarker=abstract;labelBackgroundColor=none;strokeColor=#6c8ebf;fontFamily=Helvetica;fontSize=12;fontColor=default;fillColor=#dae8fc;strokeWidth=2;" parent="5NYgrTEiffQtnbERS2pI-8" vertex="1">
          <mxGeometry x="615" y="90" width="120" height="80" as="geometry" />
        </mxCell>
        <mxCell id="4U9Br_nLbGtTlrGPJi6w-4" style="edgeStyle=orthogonalEdgeStyle;rounded=0;orthogonalLoop=1;jettySize=auto;html=1;entryX=0;entryY=0.5;entryDx=0;entryDy=0;entryPerimeter=0;" edge="1" parent="5NYgrTEiffQtnbERS2pI-8" source="4U9Br_nLbGtTlrGPJi6w-2" target="5NYgrTEiffQtnbERS2pI-10">
          <mxGeometry relative="1" as="geometry" />
        </mxCell>
        <mxCell id="4U9Br_nLbGtTlrGPJi6w-2" value="Ingresar al aplicativo OASIS modulo erip" style="points=[[0.25,0,0],[0.5,0,0],[0.75,0,0],[1,0.25,0],[1,0.5,0],[1,0.75,0],[0.75,1,0],[0.5,1,0],[0.25,1,0],[0,0.75,0],[0,0.5,0],[0,0.25,0]];shape=mxgraph.bpmn.task;whiteSpace=wrap;rectStyle=rounded;size=10;html=1;container=1;expand=0;collapsible=0;taskMarker=user;fillColor=#dae8fc;strokeColor=#6c8ebf;labelBackgroundColor=none;strokeWidth=2;" vertex="1" parent="5NYgrTEiffQtnbERS2pI-8">
          <mxGeometry x="295" y="90" width="120" height="80" as="geometry" />
        </mxCell>
        <mxCell id="4U9Br_nLbGtTlrGPJi6w-15" value="Cumple las&lt;br&gt;validaciones?" style="points=[[0.25,0.25,0],[0.5,0,0],[0.75,0.25,0],[1,0.5,0],[0.75,0.75,0],[0.5,1,0],[0.25,0.75,0],[0,0.5,0]];shape=mxgraph.bpmn.gateway2;html=1;verticalLabelPosition=bottom;labelBackgroundColor=#ffffff;verticalAlign=top;align=center;perimeter=rhombusPerimeter;outlineConnect=0;outline=none;symbol=none;strokeColor=#74c059;fontFamily=Helvetica;fontSize=12;fontColor=default;fillColor=#d1f58f;strokeWidth=2;" vertex="1" parent="5NYgrTEiffQtnbERS2pI-8">
          <mxGeometry x="795" y="105" width="50" height="50" as="geometry" />
        </mxCell>
        <mxCell id="4U9Br_nLbGtTlrGPJi6w-3" style="edgeStyle=orthogonalEdgeStyle;rounded=0;orthogonalLoop=1;jettySize=auto;html=1;" edge="1" parent="5NYgrTEiffQtnbERS2pI-1" source="4U9Br_nLbGtTlrGPJi6w-1" target="4U9Br_nLbGtTlrGPJi6w-2">
          <mxGeometry relative="1" as="geometry" />
        </mxCell>
        <mxCell id="4U9Br_nLbGtTlrGPJi6w-18" value="OASIS (erre)" style="swimlane;startSize=20;horizontal=0;html=1;" vertex="1" parent="5NYgrTEiffQtnbERS2pI-1">
          <mxGeometry y="500" width="1745" height="230" as="geometry" />
        </mxCell>
        <mxCell id="4U9Br_nLbGtTlrGPJi6w-31" style="edgeStyle=orthogonalEdgeStyle;rounded=0;orthogonalLoop=1;jettySize=auto;html=1;entryX=0;entryY=0.5;entryDx=0;entryDy=0;entryPerimeter=0;" edge="1" parent="4U9Br_nLbGtTlrGPJi6w-18" source="4U9Br_nLbGtTlrGPJi6w-17" target="4U9Br_nLbGtTlrGPJi6w-32">
          <mxGeometry relative="1" as="geometry">
            <mxPoint x="1395" y="100" as="targetPoint" />
          </mxGeometry>
        </mxCell>
        <mxCell id="4U9Br_nLbGtTlrGPJi6w-17" value="Generar informe de errores" style="points=[[0.25,0,0],[0.5,0,0],[0.75,0,0],[1,0.25,0],[1,0.5,0],[1,0.75,0],[0.75,1,0],[0.5,1,0],[0.25,1,0],[0,0.75,0],[0,0.5,0],[0,0.25,0]];shape=mxgraph.bpmn.task;whiteSpace=wrap;rectStyle=rounded;size=10;html=1;container=1;expand=0;collapsible=0;taskMarker=abstract;labelBackgroundColor=none;strokeColor=#6c8ebf;fontFamily=Helvetica;fontSize=12;fontColor=default;fillColor=#dae8fc;strokeWidth=2;" vertex="1" parent="4U9Br_nLbGtTlrGPJi6w-18">
          <mxGeometry x="915" y="60" width="120" height="80" as="geometry" />
        </mxCell>
        <mxCell id="4U9Br_nLbGtTlrGPJi6w-32" value="" style="points=[[0.145,0.145,0],[0.5,0,0],[0.855,0.145,0],[1,0.5,0],[0.855,0.855,0],[0.5,1,0],[0.145,0.855,0],[0,0.5,0]];shape=mxgraph.bpmn.event;html=1;verticalLabelPosition=bottom;labelBackgroundColor=#ffffff;verticalAlign=top;align=center;perimeter=ellipsePerimeter;outlineConnect=0;aspect=fixed;outline=end;symbol=terminate2;fillColor=#f8cecc;strokeColor=#b85450;" vertex="1" parent="4U9Br_nLbGtTlrGPJi6w-18">
          <mxGeometry x="1075" y="75" width="50" height="50" as="geometry" />
        </mxCell>
        <mxCell id="4U9Br_nLbGtTlrGPJi6w-30" value="No" style="edgeStyle=orthogonalEdgeStyle;rounded=0;orthogonalLoop=1;jettySize=auto;html=1;" edge="1" parent="5NYgrTEiffQtnbERS2pI-1" source="4U9Br_nLbGtTlrGPJi6w-15" target="4U9Br_nLbGtTlrGPJi6w-17">
          <mxGeometry relative="1" as="geometry" />
        </mxCell>
        <mxCell id="4U9Br_nLbGtTlrGPJi6w-28" value="OASIS (efac)" style="swimlane;startSize=20;horizontal=0;html=1;strokeColor=#8c8e06;" vertex="1" parent="5NYgrTEiffQtnbERS2pI-1">
          <mxGeometry y="730" width="1745" height="330" as="geometry" />
        </mxCell>
        <mxCell id="4U9Br_nLbGtTlrGPJi6w-44" value="No" style="edgeStyle=orthogonalEdgeStyle;rounded=0;orthogonalLoop=1;jettySize=auto;html=1;entryX=0;entryY=0.5;entryDx=0;entryDy=0;entryPerimeter=0;" edge="1" parent="4U9Br_nLbGtTlrGPJi6w-28" source="4U9Br_nLbGtTlrGPJi6w-37" target="4U9Br_nLbGtTlrGPJi6w-45">
          <mxGeometry relative="1" as="geometry">
            <mxPoint x="970" y="190" as="targetPoint" />
            <Array as="points">
              <mxPoint x="970" y="190" />
            </Array>
          </mxGeometry>
        </mxCell>
        <mxCell id="4U9Br_nLbGtTlrGPJi6w-50" style="edgeStyle=orthogonalEdgeStyle;rounded=0;orthogonalLoop=1;jettySize=auto;html=1;entryX=0;entryY=0.5;entryDx=0;entryDy=0;entryPerimeter=0;" edge="1" parent="4U9Br_nLbGtTlrGPJi6w-28" source="4U9Br_nLbGtTlrGPJi6w-29" target="4U9Br_nLbGtTlrGPJi6w-51">
          <mxGeometry relative="1" as="geometry">
            <mxPoint x="1215" y="60" as="targetPoint" />
          </mxGeometry>
        </mxCell>
        <mxCell id="4U9Br_nLbGtTlrGPJi6w-29" value="Cargar facturas en efac en estado ACTIVO" style="points=[[0.25,0,0],[0.5,0,0],[0.75,0,0],[1,0.25,0],[1,0.5,0],[1,0.75,0],[0.75,1,0],[0.5,1,0],[0.25,1,0],[0,0.75,0],[0,0.5,0],[0,0.25,0]];shape=mxgraph.bpmn.task;whiteSpace=wrap;rectStyle=rounded;size=10;html=1;container=1;expand=0;collapsible=0;taskMarker=abstract;labelBackgroundColor=none;strokeColor=#6c8ebf;fontFamily=Helvetica;fontSize=12;fontColor=default;fillColor=#dae8fc;strokeWidth=2;" vertex="1" parent="4U9Br_nLbGtTlrGPJi6w-28">
          <mxGeometry x="1045" y="20" width="120" height="80" as="geometry" />
        </mxCell>
        <mxCell id="4U9Br_nLbGtTlrGPJi6w-43" value="Si" style="edgeStyle=orthogonalEdgeStyle;rounded=0;orthogonalLoop=1;jettySize=auto;html=1;" edge="1" parent="4U9Br_nLbGtTlrGPJi6w-28" source="4U9Br_nLbGtTlrGPJi6w-37" target="4U9Br_nLbGtTlrGPJi6w-29">
          <mxGeometry relative="1" as="geometry" />
        </mxCell>
        <mxCell id="4U9Br_nLbGtTlrGPJi6w-37" value="Cumple con la&lt;br&gt;validaci칩n" style="points=[[0.25,0.25,0],[0.5,0,0],[0.75,0.25,0],[1,0.5,0],[0.75,0.75,0],[0.5,1,0],[0.25,0.75,0],[0,0.5,0]];shape=mxgraph.bpmn.gateway2;html=1;verticalLabelPosition=bottom;labelBackgroundColor=#ffffff;verticalAlign=top;align=center;perimeter=rhombusPerimeter;outlineConnect=0;outline=none;symbol=none;strokeColor=#74c059;fontFamily=Helvetica;fontSize=12;fontColor=default;fillColor=#d1f58f;strokeWidth=2;" vertex="1" parent="4U9Br_nLbGtTlrGPJi6w-28">
          <mxGeometry x="945" y="35" width="50" height="50" as="geometry" />
        </mxCell>
        <mxCell id="4U9Br_nLbGtTlrGPJi6w-42" style="edgeStyle=orthogonalEdgeStyle;rounded=0;orthogonalLoop=1;jettySize=auto;html=1;" edge="1" parent="4U9Br_nLbGtTlrGPJi6w-28" source="4U9Br_nLbGtTlrGPJi6w-34" target="4U9Br_nLbGtTlrGPJi6w-37">
          <mxGeometry relative="1" as="geometry" />
        </mxCell>
        <mxCell id="4U9Br_nLbGtTlrGPJi6w-34" value="Validar que el ID sea igual al reportado en el archivo AU y que corresponda al afiliado y prestador que reporta los RIPS" style="points=[[0.25,0,0],[0.5,0,0],[0.75,0,0],[1,0.25,0],[1,0.5,0],[1,0.75,0],[0.75,1,0],[0.5,1,0],[0.25,1,0],[0,0.75,0],[0,0.5,0],[0,0.25,0]];shape=mxgraph.bpmn.task;whiteSpace=wrap;rectStyle=rounded;size=10;html=1;container=1;expand=0;collapsible=0;taskMarker=abstract;labelBackgroundColor=none;strokeColor=#6c8ebf;fontFamily=Helvetica;fontSize=12;fontColor=default;fillColor=#dae8fc;strokeWidth=2;" vertex="1" parent="4U9Br_nLbGtTlrGPJi6w-28">
          <mxGeometry x="740" y="20" width="160" height="80" as="geometry" />
        </mxCell>
        <mxCell id="4U9Br_nLbGtTlrGPJi6w-46" style="edgeStyle=orthogonalEdgeStyle;rounded=0;orthogonalLoop=1;jettySize=auto;html=1;" edge="1" parent="4U9Br_nLbGtTlrGPJi6w-28" source="4U9Br_nLbGtTlrGPJi6w-45" target="4U9Br_nLbGtTlrGPJi6w-47">
          <mxGeometry relative="1" as="geometry">
            <mxPoint x="1225" y="190" as="targetPoint" />
          </mxGeometry>
        </mxCell>
        <mxCell id="4U9Br_nLbGtTlrGPJi6w-45" value="Cargar facturas en efac en estado DEVUELTO" style="points=[[0.25,0,0],[0.5,0,0],[0.75,0,0],[1,0.25,0],[1,0.5,0],[1,0.75,0],[0.75,1,0],[0.5,1,0],[0.25,1,0],[0,0.75,0],[0,0.5,0],[0,0.25,0]];shape=mxgraph.bpmn.task;whiteSpace=wrap;rectStyle=rounded;size=10;html=1;container=1;expand=0;collapsible=0;taskMarker=abstract;labelBackgroundColor=none;strokeColor=#6c8ebf;fontFamily=Helvetica;fontSize=12;fontColor=default;fillColor=#dae8fc;strokeWidth=2;" vertex="1" parent="4U9Br_nLbGtTlrGPJi6w-28">
          <mxGeometry x="1045" y="150" width="120" height="80" as="geometry" />
        </mxCell>
        <mxCell id="4U9Br_nLbGtTlrGPJi6w-56" style="edgeStyle=orthogonalEdgeStyle;rounded=0;orthogonalLoop=1;jettySize=auto;html=1;" edge="1" parent="4U9Br_nLbGtTlrGPJi6w-28" source="4U9Br_nLbGtTlrGPJi6w-57" target="4U9Br_nLbGtTlrGPJi6w-54">
          <mxGeometry relative="1" as="geometry" />
        </mxCell>
        <mxCell id="4U9Br_nLbGtTlrGPJi6w-47" value="Insertar texto en el campo observaciones" style="points=[[0.25,0,0],[0.5,0,0],[0.75,0,0],[1,0.25,0],[1,0.5,0],[1,0.75,0],[0.75,1,0],[0.5,1,0],[0.25,1,0],[0,0.75,0],[0,0.5,0],[0,0.25,0]];shape=mxgraph.bpmn.task;whiteSpace=wrap;rectStyle=rounded;size=10;html=1;container=1;expand=0;collapsible=0;taskMarker=abstract;labelBackgroundColor=none;strokeColor=#6c8ebf;fontFamily=Helvetica;fontSize=12;fontColor=default;fillColor=#dae8fc;strokeWidth=2;" vertex="1" parent="4U9Br_nLbGtTlrGPJi6w-28">
          <mxGeometry x="1215" y="150" width="120" height="80" as="geometry" />
        </mxCell>
        <mxCell id="4U9Br_nLbGtTlrGPJi6w-49" value="&quot;El n칰mero de notificaci칩n de urgencias no corresponde al reportado en el archivo rips de urgencias AU" style="text;html=1;strokeColor=none;fillColor=none;align=center;verticalAlign=middle;whiteSpace=wrap;rounded=0;" vertex="1" parent="4U9Br_nLbGtTlrGPJi6w-28">
          <mxGeometry x="1170" y="260" width="210" height="60" as="geometry" />
        </mxCell>
        <mxCell id="4U9Br_nLbGtTlrGPJi6w-48" style="edgeStyle=orthogonalEdgeStyle;rounded=0;orthogonalLoop=1;jettySize=auto;html=1;dashed=1;" edge="1" parent="4U9Br_nLbGtTlrGPJi6w-28" source="4U9Br_nLbGtTlrGPJi6w-47" target="4U9Br_nLbGtTlrGPJi6w-49">
          <mxGeometry relative="1" as="geometry">
            <mxPoint x="1295" y="250" as="targetPoint" />
          </mxGeometry>
        </mxCell>
        <mxCell id="4U9Br_nLbGtTlrGPJi6w-53" style="edgeStyle=orthogonalEdgeStyle;rounded=0;orthogonalLoop=1;jettySize=auto;html=1;" edge="1" parent="4U9Br_nLbGtTlrGPJi6w-28" source="4U9Br_nLbGtTlrGPJi6w-51" target="4U9Br_nLbGtTlrGPJi6w-52">
          <mxGeometry relative="1" as="geometry" />
        </mxCell>
        <mxCell id="4U9Br_nLbGtTlrGPJi6w-51" value="Marcar la notificaci칩n de urgencias en base de datos con el ID de la factura asociada" style="points=[[0.25,0,0],[0.5,0,0],[0.75,0,0],[1,0.25,0],[1,0.5,0],[1,0.75,0],[0.75,1,0],[0.5,1,0],[0.25,1,0],[0,0.75,0],[0,0.5,0],[0,0.25,0]];shape=mxgraph.bpmn.task;whiteSpace=wrap;rectStyle=rounded;size=10;html=1;container=1;expand=0;collapsible=0;taskMarker=abstract;labelBackgroundColor=none;strokeColor=#6c8ebf;fontFamily=Helvetica;fontSize=12;fontColor=default;fillColor=#dae8fc;strokeWidth=2;" vertex="1" parent="4U9Br_nLbGtTlrGPJi6w-28">
          <mxGeometry x="1215" y="20" width="120" height="80" as="geometry" />
        </mxCell>
        <mxCell id="4U9Br_nLbGtTlrGPJi6w-55" style="edgeStyle=orthogonalEdgeStyle;rounded=0;orthogonalLoop=1;jettySize=auto;html=1;entryX=0.5;entryY=0;entryDx=0;entryDy=0;entryPerimeter=0;" edge="1" parent="4U9Br_nLbGtTlrGPJi6w-28" source="4U9Br_nLbGtTlrGPJi6w-52" target="4U9Br_nLbGtTlrGPJi6w-57">
          <mxGeometry relative="1" as="geometry" />
        </mxCell>
        <mxCell id="4U9Br_nLbGtTlrGPJi6w-52" value="Marcar la notificaci칩n de urgencias en base de datos con el ID de la factura asociada" style="points=[[0.25,0,0],[0.5,0,0],[0.75,0,0],[1,0.25,0],[1,0.5,0],[1,0.75,0],[0.75,1,0],[0.5,1,0],[0.25,1,0],[0,0.75,0],[0,0.5,0],[0,0.25,0]];shape=mxgraph.bpmn.task;whiteSpace=wrap;rectStyle=rounded;size=10;html=1;container=1;expand=0;collapsible=0;taskMarker=abstract;labelBackgroundColor=none;strokeColor=#6c8ebf;fontFamily=Helvetica;fontSize=12;fontColor=default;fillColor=#dae8fc;strokeWidth=2;" vertex="1" parent="4U9Br_nLbGtTlrGPJi6w-28">
          <mxGeometry x="1380" y="20" width="120" height="80" as="geometry" />
        </mxCell>
        <mxCell id="4U9Br_nLbGtTlrGPJi6w-54" value="" style="points=[[0.145,0.145,0],[0.5,0,0],[0.855,0.145,0],[1,0.5,0],[0.855,0.855,0],[0.5,1,0],[0.145,0.855,0],[0,0.5,0]];shape=mxgraph.bpmn.event;html=1;verticalLabelPosition=bottom;labelBackgroundColor=#ffffff;verticalAlign=top;align=center;perimeter=ellipsePerimeter;outlineConnect=0;aspect=fixed;outline=end;symbol=terminate;fillColor=#f8cecc;strokeColor=#b85450;" vertex="1" parent="4U9Br_nLbGtTlrGPJi6w-28">
          <mxGeometry x="1625" y="100" width="50" height="50" as="geometry" />
        </mxCell>
        <mxCell id="4U9Br_nLbGtTlrGPJi6w-57" value="" style="points=[[0.25,0.25,0],[0.5,0,0],[0.75,0.25,0],[1,0.5,0],[0.75,0.75,0],[0.5,1,0],[0.25,0.75,0],[0,0.5,0]];shape=mxgraph.bpmn.gateway2;html=1;verticalLabelPosition=bottom;labelBackgroundColor=#ffffff;verticalAlign=top;align=center;perimeter=rhombusPerimeter;outlineConnect=0;outline=end;symbol=general;fillColor=#FFFFCC;strokeColor=#8c8e06;strokeWidth=1;" vertex="1" parent="4U9Br_nLbGtTlrGPJi6w-28">
          <mxGeometry x="1535" y="100" width="50" height="50" as="geometry" />
        </mxCell>
        <mxCell id="4U9Br_nLbGtTlrGPJi6w-58" value="" style="edgeStyle=orthogonalEdgeStyle;rounded=0;orthogonalLoop=1;jettySize=auto;html=1;exitX=1;exitY=0.5;exitDx=0;exitDy=0;exitPerimeter=0;" edge="1" parent="4U9Br_nLbGtTlrGPJi6w-28" source="4U9Br_nLbGtTlrGPJi6w-47" target="4U9Br_nLbGtTlrGPJi6w-57">
          <mxGeometry relative="1" as="geometry">
            <mxPoint x="1360" y="920" as="sourcePoint" />
            <mxPoint x="1595" y="825" as="targetPoint" />
            <Array as="points">
              <mxPoint x="1560" y="190" />
            </Array>
          </mxGeometry>
        </mxCell>
      </root>
    </mxGraphModel>
  </diagram>
</mxfile>
